<svg width="93" height="94" viewBox="0 0 93 94" fill="none" xmlns="http://www.w3.org/2000/svg">
<path d="M46.3394 94C71.9319 94 92.6787 72.9574 92.6787 47C92.6787 21.0426 71.9319 0 46.3394 0C20.7468 0 0 21.0426 0 47C0 72.9574 20.7468 94 46.3394 94Z" fill="#1DA1F2"/>
<path d="M70.4141 32.5694C68.7126 33.3313 66.8934 33.8454 64.9747 34.0841C66.9296 32.8907 68.432 31.0089 69.138 28.769C67.3098 29.8522 65.2734 30.6417 63.1193 31.0823C61.3906 29.2097 58.9379 28.0347 56.2046 28.0347C50.9733 28.0347 46.7286 32.3399 46.7286 37.6366C46.7286 38.3985 46.8191 39.1329 46.9729 39.8306C39.0989 39.4542 32.1118 35.6171 27.4416 29.8155C26.618 31.2292 26.1564 32.8632 26.1564 34.6532C26.1564 37.9946 27.8308 40.9321 30.374 42.6579C28.8173 42.6028 27.3602 42.1714 26.084 41.4554V41.5747C26.084 46.238 29.3423 50.121 33.6866 51.0022C32.8901 51.2226 32.0484 51.3327 31.1886 51.3327C30.5822 51.3327 30.003 51.2776 29.4237 51.1675C30.6365 54.9862 34.1301 57.7677 38.2934 57.8411C35.0623 60.4206 30.9533 61.9536 26.5456 61.9536C25.7944 61.9536 25.0432 61.9077 24.292 61.8251C28.5096 64.5515 33.4784 66.1396 38.8454 66.1396C56.268 66.1396 65.7983 51.498 65.7983 38.8208C65.7983 38.4169 65.7983 38.0038 65.7711 37.5907C67.6175 36.2413 69.2375 34.5431 70.5046 32.6153L70.4141 32.5694Z" fill="white"/>
</svg>
