<svg width="93" height="94" viewBox="0 0 93 94" fill="none" xmlns="http://www.w3.org/2000/svg">
<path d="M46.3394 94C71.9319 94 92.6787 72.9574 92.6787 47C92.6787 21.0426 71.9319 0 46.3394 0C20.7468 0 0 21.0426 0 47C0 72.9574 20.7468 94 46.3394 94Z" fill="#607D8B"/>
<path d="M62.5128 28.2551H30.1657C26.3373 28.2551 23.2329 31.4038 23.2329 35.2868V58.7225C23.2329 62.6055 26.3373 65.7542 30.1657 65.7542H62.5128C66.3412 65.7542 69.4456 62.6055 69.4456 58.7225V35.2776C69.4456 31.3946 66.3412 28.2551 62.5128 28.2551ZM61.5715 32.9368L47.9774 46.7155C47.0814 47.6334 45.6152 47.6426 44.7101 46.7247L44.7011 46.7155L31.107 32.9368H61.5715ZM64.8297 58.7225C64.8297 60.0168 63.7979 61.0633 62.5218 61.0633H30.1657C28.8896 61.0633 27.8578 60.0168 27.8578 58.7225V36.2415L41.4428 50.0202C44.149 52.7649 48.5295 52.7649 51.2447 50.0202L64.8297 36.2415V58.7225Z" fill="white"/>
</svg>
