<svg width="93" height="94" viewBox="0 0 93 94" fill="none" xmlns="http://www.w3.org/2000/svg">
<path d="M46.3394 94C71.9319 94 92.6787 72.9574 92.6787 47C92.6787 21.0426 71.9319 0 46.3394 0C20.7468 0 0 21.0426 0 47C0 72.9574 20.7468 94 46.3394 94Z" fill="#0A66C2"/>
<path d="M62.7301 63.6336H55.8516V52.7098C55.8516 50.1027 55.7973 46.7521 52.2675 46.7521C48.6835 46.7521 48.1314 49.5887 48.1314 52.517V63.6336H41.2529V41.1617H47.8599V44.2277H47.9504C48.8735 42.4652 51.1181 40.6018 54.4668 40.6018C61.4359 40.6018 62.721 45.2559 62.721 51.3053L62.7301 63.6336ZM33.4965 38.0865C31.2791 38.0865 29.5051 36.2689 29.5051 34.0383C29.5051 31.8076 31.2881 29.99 33.4965 29.99C35.7048 29.99 37.4878 31.8076 37.4878 34.0383C37.4878 36.2689 35.6958 38.0865 33.4965 38.0865ZM36.9448 63.6336H30.0482V41.1617H36.9448V63.6336ZM66.1693 23.5H26.5999C24.7083 23.5 23.1697 25.0146 23.1697 26.8965V67.1953C23.1697 69.068 24.6992 70.5918 26.5999 70.5918H66.1603C68.0519 70.5918 69.5995 69.0771 69.5995 67.1953V26.8965C69.5995 25.0146 68.0519 23.5 66.1693 23.5Z" fill="white"/>
</svg>
