<svg width="93" height="94" viewBox="0 0 93 94" fill="none" xmlns="http://www.w3.org/2000/svg">
<path d="M46.3394 94C71.9319 94 92.6787 72.9574 92.6787 47C92.6787 21.0426 71.9319 0 46.3394 0C20.7468 0 0 21.0426 0 47C0 72.9574 20.7468 94 46.3394 94Z" fill="#E4405F"/>
<path d="M46.3393 23.5C40.0491 23.5 39.2617 23.5275 36.7909 23.6377C34.3201 23.757 32.6457 24.1518 31.1704 24.7301C29.6499 25.3268 28.3557 26.1346 27.0614 27.4381C25.7672 28.7416 24.9798 30.0543 24.3915 31.6057C23.8213 33.102 23.4321 34.8094 23.3145 37.3062C23.1968 39.8123 23.1787 40.6109 23.1787 46.9908C23.1787 53.3707 23.2059 54.1693 23.3145 56.6754C23.4321 59.1723 23.8213 60.8797 24.3915 62.376C24.9798 63.9182 25.7762 65.2309 27.0614 66.5436C28.3466 67.8471 29.6409 68.6549 31.1704 69.2516C32.6457 69.8299 34.3291 70.2246 36.7909 70.3439C39.2617 70.4633 40.0491 70.4816 46.3393 70.4816C52.6295 70.4816 53.417 70.4541 55.8878 70.3439C58.3496 70.2246 60.033 69.8299 61.5082 69.2516C63.0287 68.6549 64.323 67.8471 65.6172 66.5436C66.9024 65.24 67.6989 63.9273 68.2872 62.376C68.8574 60.8797 69.2465 59.1723 69.3642 56.6754C69.4819 54.1693 69.5 53.3707 69.5 46.9908C69.5 40.6109 69.4728 39.8123 69.3642 37.3062C69.2465 34.8094 68.8574 33.102 68.2872 31.6057C67.6989 30.0635 66.9024 28.7508 65.6172 27.4381C64.332 26.1346 63.0378 25.3268 61.5082 24.7301C60.033 24.1518 58.3496 23.757 55.8878 23.6377C53.417 23.5275 52.6295 23.5 46.3393 23.5ZM46.3393 27.7318C52.5209 27.7318 53.2631 27.7594 55.7068 27.8695C57.9694 27.9797 59.1913 28.3561 60.0058 28.6865C61.0919 29.1088 61.8612 29.6229 62.6758 30.4398C63.4813 31.266 63.9881 32.0463 64.4044 33.1479C64.7212 33.974 65.1013 35.2133 65.2009 37.5082C65.3095 39.9867 65.3367 40.7303 65.3367 47.0092C65.3367 53.2881 65.3095 54.0316 65.1919 56.5102C65.0742 58.8051 64.6941 60.0443 64.3773 60.8705C63.9429 61.9721 63.4541 62.7523 62.6396 63.5785C61.8341 64.3955 61.0467 64.9096 59.9787 65.3318C59.1641 65.6531 57.9242 66.0387 55.6615 66.1396C53.1997 66.2498 52.4757 66.2773 46.276 66.2773C40.0763 66.2773 39.3522 66.2498 36.8905 66.1305C34.6278 66.0111 33.3878 65.6256 32.5733 65.3043C31.4782 64.8637 30.7179 64.368 29.9124 63.5418C29.0978 62.7248 28.582 61.9262 28.1747 60.843C27.8579 60.0168 27.4778 58.7592 27.3601 56.4643C27.2696 53.9949 27.2425 53.233 27.2425 46.9816C27.2425 40.7211 27.2696 39.9592 27.3601 37.4623C27.4778 35.1674 27.8488 33.9098 28.1747 33.0836C28.582 31.9637 29.0978 31.2018 29.9124 30.3756C30.7179 29.5586 31.4782 29.0262 32.5733 28.6131C33.3878 28.2918 34.6006 27.9063 36.8633 27.7869C39.3251 27.6951 40.0491 27.6676 46.2488 27.6676L46.3393 27.7318ZM46.3393 34.9287C39.7686 34.9287 34.4377 40.3355 34.4377 47C34.4377 53.6645 39.7686 59.0713 46.3393 59.0713C52.9101 59.0713 58.2409 53.6645 58.2409 47C58.2409 40.3355 52.9101 34.9287 46.3393 34.9287ZM46.3393 54.8303C42.0765 54.8303 38.6191 51.3236 38.6191 47C38.6191 42.6764 42.0765 39.1697 46.3393 39.1697C50.6022 39.1697 54.0595 42.6764 54.0595 47C54.0595 51.3236 50.6022 54.8303 46.3393 54.8303ZM61.4901 34.4605C61.4901 36.0211 60.2411 37.2787 58.7116 37.2787C57.173 37.2787 55.933 36.0119 55.933 34.4605C55.933 32.9092 57.182 31.6424 58.7116 31.6424C60.2411 31.6332 61.4901 32.9 61.4901 34.4605Z" fill="white"/>
</svg>
