<svg width="93" height="94" viewBox="0 0 93 94" fill="none" xmlns="http://www.w3.org/2000/svg">
<path d="M46.3394 94C71.9319 94 92.6787 72.9574 92.6787 47C92.6787 21.0426 71.9319 0 46.3394 0C20.7468 0 0 21.0426 0 47C0 72.9574 20.7468 94 46.3394 94Z" fill="#3C5A99"/>
<path d="M49.9415 70.5001V49.0931H57.0553L58.1233 40.712H49.9415V35.3786C49.9415 32.9552 50.6022 31.312 54.0233 31.312H58.3586V23.8397C57.6074 23.7388 55.0189 23.5093 52.005 23.5093C45.7148 23.5093 41.4067 27.4015 41.4067 34.5524V40.7212H34.3201V49.1022H41.4067V70.5001H49.9415Z" fill="white"/>
</svg>
